<svg width="18" height="28" viewBox="0 0 18 28" fill="none" xmlns="http://www.w3.org/2000/svg">
<path d="M17.2473 1.22346C17.2473 1.02462 17.1683 0.833914 17.0277 0.693308C16.8871 0.552702 16.6964 0.47371 16.4975 0.47371H12.7487C10.861 0.379677 9.01287 1.03661 7.60802 2.30098C6.20316 3.56535 5.35585 5.33436 5.25121 7.22149V11.2702H1.50244C1.30359 11.2702 1.11289 11.3492 0.972283 11.4898C0.831677 11.6304 0.752686 11.8211 0.752686 12.0199V15.9186C0.752686 16.1175 0.831677 16.3082 0.972283 16.4488C1.11289 16.5894 1.30359 16.6684 1.50244 16.6684H5.25121V26.7151C5.25121 26.9139 5.3302 27.1046 5.47081 27.2452C5.61141 27.3859 5.80211 27.4648 6.00096 27.4648H10.4995C10.6983 27.4648 10.889 27.3859 11.0296 27.2452C11.1702 27.1046 11.2492 26.9139 11.2492 26.7151V16.6684H15.1779C15.3447 16.6708 15.5074 16.6175 15.6405 16.517C15.7736 16.4166 15.8694 16.2746 15.9127 16.1136L16.9924 12.2149C17.0222 12.1041 17.0262 11.9879 17.0041 11.8753C16.982 11.7628 16.9343 11.6568 16.8648 11.5655C16.7952 11.4743 16.7057 11.4002 16.603 11.349C16.5004 11.2978 16.3873 11.2708 16.2726 11.2702H11.2492V7.22149C11.2865 6.85033 11.4608 6.5064 11.7381 6.25685C12.0154 6.0073 12.3757 5.87007 12.7487 5.87194H16.4975C16.6964 5.87194 16.8871 5.79294 17.0277 5.65234C17.1683 5.51173 17.2473 5.32103 17.2473 5.12218V1.22346Z" fill="white"/>
</svg>
