<svg width="26" height="27" viewBox="0 0 26 27" fill="none" xmlns="http://www.w3.org/2000/svg">
<path d="M13.0029 7.29877C9.31389 7.29877 6.33832 10.275 6.33832 13.9648C6.33832 17.6547 9.31389 20.6309 13.0029 20.6309C16.6919 20.6309 19.6675 17.6547 19.6675 13.9648C19.6675 10.275 16.6919 7.29877 13.0029 7.29877ZM13.0029 18.2987C10.619 18.2987 8.67005 16.3551 8.67005 13.9648C8.67005 11.5746 10.6132 9.63103 13.0029 9.63103C15.3926 9.63103 17.3358 11.5746 17.3358 13.9648C17.3358 16.3551 15.3868 18.2987 13.0029 18.2987ZM21.4946 7.0261C21.4946 7.89054 20.7986 8.58093 19.9401 8.58093C19.0759 8.58093 18.3856 7.88474 18.3856 7.0261C18.3856 6.16745 19.0817 5.47126 19.9401 5.47126C20.7986 5.47126 21.4946 6.16745 21.4946 7.0261ZM25.9086 8.60414C25.81 6.52135 25.3344 4.67644 23.8089 3.15641C22.2892 1.63638 20.4447 1.16065 18.3624 1.05622C16.2163 0.934385 9.78372 0.934385 7.63759 1.05622C5.56107 1.15485 3.71656 1.63058 2.19108 3.15061C0.665589 4.67063 0.195761 6.51555 0.0913553 8.59834C-0.0304518 10.7449 -0.0304518 17.1789 0.0913553 19.3255C0.189961 21.4083 0.665589 23.2533 2.19108 24.7733C3.71656 26.2933 5.55527 26.769 7.63759 26.8735C9.78372 26.9953 16.2163 26.9953 18.3624 26.8735C20.4447 26.7748 22.2892 26.2991 23.8089 24.7733C25.3286 23.2533 25.8042 21.4083 25.9086 19.3255C26.0305 17.1789 26.0305 10.7507 25.9086 8.60414ZM23.1361 21.6288C22.6837 22.7659 21.8078 23.642 20.6651 24.1003C18.954 24.7791 14.8938 24.6224 13.0029 24.6224C11.112 24.6224 7.04596 24.7733 5.34066 24.1003C4.20379 23.6478 3.32794 22.7717 2.86972 21.6288C2.19108 19.9173 2.34769 15.8562 2.34769 13.9648C2.34769 12.0735 2.19688 8.00657 2.86972 6.30089C3.32214 5.16377 4.19799 4.28773 5.34066 3.8294C7.05176 3.15061 11.112 3.30725 13.0029 3.30725C14.8938 3.30725 18.9598 3.15641 20.6651 3.8294C21.802 4.28192 22.6779 5.15797 23.1361 6.30089C23.8147 8.01237 23.6581 12.0735 23.6581 13.9648C23.6581 15.8562 23.8147 19.9231 23.1361 21.6288Z" fill="white"/>
</svg>
